<svg width="83" height="28" viewBox="0 0 83 28" fill="none" xmlns="http://www.w3.org/2000/svg">
<path d="M0 11.7535V0.504517H5.55891C6.33508 0.504517 6.98006 0.652098 7.49386 0.947261C8.00767 1.23149 8.39029 1.63051 8.64172 2.14431C8.90409 2.65811 9.03527 3.25391 9.03527 3.93169C9.03527 4.6204 8.89316 5.23259 8.60892 5.76826C8.32469 6.29299 7.92021 6.70294 7.39548 6.9981C6.88167 7.29327 6.26402 7.44085 5.54251 7.44085H1.55781V11.7535H0ZM1.55781 6.09622H5.44412C6.05631 6.09622 6.54278 5.90491 6.90354 5.52229C7.27522 5.13967 7.46107 4.61494 7.46107 3.94809C7.46107 3.49988 7.38454 3.12272 7.2315 2.81663C7.07845 2.51053 6.85434 2.2755 6.55918 2.11152C6.26402 1.9366 5.89233 1.84915 5.44412 1.84915H1.55781V6.09622Z" fill="white"/>
<path d="M10.5773 11.7535V0.504517H19.2354V1.84915H12.1351V5.32551H18.5139V6.67015H12.1351V10.4089H19.3338V11.7535H10.5773Z" fill="white"/>
<path d="M21.3468 11.7535V0.504517H22.9046V10.3925H28.4963V11.7535H21.3468Z" fill="white"/>
<path d="M41.5 11.7535C40.5489 11.7535 32.0215 11.7972 31.3328 11.4911C30.6441 11.185 30.1139 10.704 29.7422 10.0481C29.3814 9.38127 29.201 8.52858 29.201 7.49004V0.504517H30.7588V7.65402C30.7588 8.6379 31.0212 9.37581 31.5459 9.86775C32.0816 10.3597 40.538 10.4089 41.5 10.4089C42.4729 10.4089 60.912 10.3597 61.4586 9.86775C62.0052 9.37581 62.2785 8.6379 62.2785 7.65402V0.504517H63.8199V7.49004C63.8199 8.52858 63.6341 9.38127 63.2624 10.0481C62.8907 10.704 62.355 11.185 61.6554 11.4911C60.9667 11.7972 42.462 11.7535 41.5 11.7535Z" fill="white"/>
<path d="M66.2869 11.7535V0.504517H68.6974L71.2555 7.8016C71.3211 7.99838 71.3867 8.21702 71.4523 8.45752C71.5288 8.68709 71.5944 8.90573 71.6491 9.11344C71.7146 9.32115 71.7638 9.50153 71.7966 9.65457H71.9114C71.9442 9.49059 71.988 9.30475 72.0426 9.09704C72.0973 8.8784 72.1574 8.6543 72.223 8.42473C72.2886 8.19516 72.3487 7.98745 72.4034 7.8016L74.9614 0.504517H77.3555V11.7535H75.7977V5.16153C75.7977 4.82264 75.8032 4.45642 75.8141 4.06287C75.8251 3.65839 75.836 3.29217 75.8469 2.96421C75.8579 2.62532 75.8633 2.38481 75.8633 2.2427H75.7321C75.6993 2.38481 75.6447 2.58706 75.5682 2.84942C75.4916 3.10086 75.4097 3.36869 75.3222 3.65292C75.2457 3.92622 75.1746 4.17219 75.109 4.39083L72.469 11.7535H71.1243L68.4843 4.39083C68.4187 4.20499 68.3476 3.99181 68.2711 3.75131C68.2055 3.49988 68.1344 3.24297 68.0579 2.98061C67.9923 2.71824 67.9267 2.47227 67.8611 2.2427H67.7463C67.7573 2.4832 67.7627 2.78383 67.7627 3.14459C67.7737 3.49441 67.7791 3.8497 67.7791 4.21045C67.7901 4.56028 67.7955 4.8773 67.7955 5.16153V11.7535H66.2869Z" fill="white"/>
<path d="M79.8428 11.7535V0.504517H81.4006V11.7535H79.8428Z" fill="white"/>
<path d="M0 27.2988L4.44385 16.0498H6.49359L10.9538 27.2988H9.26484L8.16618 24.5111H2.68926L1.607 27.2988H0ZM3.1976 23.1829H7.64145L6.28042 19.6574C6.24762 19.559 6.19843 19.4223 6.13283 19.2474C6.06724 19.0725 5.99618 18.8812 5.91966 18.6735C5.84314 18.4548 5.76661 18.2362 5.69009 18.0176C5.61356 17.788 5.54251 17.5803 5.47692 17.3944H5.37853C5.302 17.6131 5.21455 17.8645 5.11616 18.1487C5.01777 18.433 4.91939 18.7117 4.821 18.985C4.72261 19.2474 4.64062 19.4715 4.57503 19.6574L3.1976 23.1829Z" fill="white"/>
<path d="M12.145 27.2988V16.0498H17.9499C18.5949 16.0498 19.1524 16.1646 19.6225 16.3942C20.0925 16.6128 20.4533 16.9244 20.7047 17.3288C20.9671 17.7333 21.0983 18.2143 21.0983 18.7719C21.0983 19.1982 21.0217 19.5918 20.8687 19.9525C20.7157 20.3133 20.5025 20.6139 20.2292 20.8544C19.9559 21.0949 19.6443 21.2753 19.2945 21.3955V21.4611C19.688 21.5486 20.0433 21.7071 20.3604 21.9367C20.6774 22.1662 20.9288 22.4723 21.1147 22.855C21.3114 23.2266 21.4098 23.6858 21.4098 24.2324C21.4098 24.9648 21.2568 25.5551 20.9507 26.0034C20.6446 26.4516 20.2346 26.7795 19.7208 26.9872C19.207 27.1949 18.6167 27.2988 17.9499 27.2988H12.145ZM13.7028 25.9542H17.9335C18.491 25.9542 18.9447 25.812 19.2945 25.5278C19.6443 25.2327 19.8192 24.7462 19.8192 24.0684C19.8192 23.653 19.7427 23.3086 19.5897 23.0353C19.4366 22.7511 19.2125 22.5434 18.9173 22.4122C18.6222 22.2701 18.2505 22.199 17.8023 22.199H13.7028V25.9542ZM13.7028 20.8708H17.6547C18.0264 20.8708 18.3489 20.7997 18.6222 20.6576C18.8955 20.5046 19.1087 20.2969 19.2617 20.0345C19.4257 19.7612 19.5077 19.4551 19.5077 19.1162C19.5077 18.5259 19.3492 18.0941 19.0321 17.8208C18.7151 17.5366 18.2942 17.3944 17.7695 17.3944H13.7028V20.8708Z" fill="white"/>
<path d="M23.2668 27.2988V16.0498H24.8246V27.2988H23.2668Z" fill="white"/>
<path d="M27.3105 27.2988V16.0498H29.721L32.2791 23.3469C32.3447 23.5437 32.4103 23.7623 32.4759 24.0028C32.5524 24.2324 32.618 24.451 32.6727 24.6587C32.7383 24.8664 32.7874 25.0468 32.8202 25.1999H32.935C32.9678 25.0359 33.0116 24.85 33.0662 24.6423C33.1209 24.4237 33.181 24.1996 33.2466 23.97C33.3122 23.7404 33.3723 23.5327 33.427 23.3469L35.9851 16.0498H38.3792V27.2988H36.8213V20.7068C36.8213 20.3679 36.8268 20.0017 36.8377 19.6082C36.8487 19.2037 36.8596 18.8375 36.8705 18.5095C36.8815 18.1706 36.8869 17.9301 36.8869 17.788H36.7558C36.723 17.9301 36.6683 18.1323 36.5918 18.3947C36.5152 18.6461 36.4333 18.914 36.3458 19.1982C36.2693 19.4715 36.1982 19.7175 36.1326 19.9361L33.4926 27.2988H32.1479L29.5079 19.9361C29.4423 19.7503 29.3712 19.5371 29.2947 19.2966C29.2291 19.0452 29.158 18.7883 29.0815 18.5259C29.0159 18.2635 28.9503 18.0176 28.8847 17.788H28.7699C28.7809 18.0285 28.7863 18.3291 28.7863 18.6899C28.7973 19.0397 28.8027 19.395 28.8027 19.7557C28.8137 20.1056 28.8191 20.4226 28.8191 20.7068V27.2988H27.3105Z" fill="white"/>
<path d="M40.8664 27.2988V16.0498H46.6713C47.3162 16.0498 47.8738 16.1646 48.3438 16.3942C48.8139 16.6128 49.1747 16.9244 49.4261 17.3288C49.6885 17.7333 49.8197 18.2143 49.8197 18.7719C49.8197 19.1982 49.7431 19.5918 49.5901 19.9525C49.437 20.3133 49.2239 20.6139 48.9506 20.8544C48.6773 21.0949 48.3657 21.2753 48.0159 21.3955V21.4611C48.4094 21.5486 48.7647 21.7071 49.0818 21.9367C49.3988 22.1662 49.6502 22.4723 49.8361 22.855C50.0328 23.2266 50.1312 23.6858 50.1312 24.2324C50.1312 24.9648 49.9782 25.5551 49.6721 26.0034C49.366 26.4516 48.956 26.7795 48.4422 26.9872C47.9284 27.1949 47.3381 27.2988 46.6713 27.2988H40.8664ZM42.4242 25.9542H46.6549C47.2124 25.9542 47.6661 25.812 48.0159 25.5278C48.3657 25.2327 48.5406 24.7462 48.5406 24.0684C48.5406 23.653 48.4641 23.3086 48.3111 23.0353C48.158 22.7511 47.9339 22.5434 47.6387 22.4122C47.3436 22.2701 46.9719 22.199 46.5237 22.199H42.4242V25.9542ZM42.4242 20.8708H46.3761C46.7478 20.8708 47.0703 20.7997 47.3436 20.6576C47.6169 20.5046 47.83 20.2969 47.9831 20.0345C48.1471 19.7612 48.2291 19.4551 48.2291 19.1162C48.2291 18.5259 48.0705 18.0941 47.7535 17.8208C47.4365 17.5366 47.0156 17.3944 46.4909 17.3944H42.4242V20.8708Z" fill="white"/>
<path d="M57.0387 27.4956C55.869 27.4956 54.8633 27.2824 54.0215 26.8561C53.1907 26.4297 52.5457 25.7847 52.0866 24.9211C51.6383 24.0575 51.4142 22.9752 51.4142 21.6743C51.4142 20.3625 51.6383 19.2802 52.0866 18.4275C52.5457 17.5639 53.1907 16.9189 54.0215 16.4925C54.8633 16.0662 55.869 15.853 57.0387 15.853C58.2085 15.853 59.2087 16.0662 60.0396 16.4925C60.8813 16.9189 61.5263 17.5639 61.9745 18.4275C62.4337 19.2802 62.6632 20.3625 62.6632 21.6743C62.6632 22.9752 62.4337 24.0575 61.9745 24.9211C61.5263 25.7847 60.8813 26.4297 60.0396 26.8561C59.2087 27.2824 58.2085 27.4956 57.0387 27.4956ZM57.0387 26.1509C57.6509 26.1509 58.203 26.069 58.6949 25.905C59.1978 25.741 59.6187 25.4841 59.9576 25.1343C60.3074 24.7735 60.5752 24.3253 60.7611 23.7896C60.9469 23.243 61.0398 22.5981 61.0398 21.8547V21.5103C61.0398 20.756 60.9469 20.111 60.7611 19.5754C60.5752 19.0288 60.3074 18.5806 59.9576 18.2307C59.6187 17.87 59.1978 17.6076 58.6949 17.4436C58.203 17.2796 57.6509 17.1977 57.0387 17.1977C56.4156 17.1977 55.8581 17.2796 55.3661 17.4436C54.8742 17.6076 54.4533 17.87 54.1035 18.2307C53.7537 18.5806 53.4858 19.0288 53.3 19.5754C53.1251 20.111 53.0376 20.756 53.0376 21.5103V21.8547C53.0376 22.5981 53.1251 23.243 53.3 23.7896C53.4858 24.3253 53.7537 24.7735 54.1035 25.1343C54.4533 25.4841 54.8742 25.741 55.3661 25.905C55.8581 26.069 56.4156 26.1509 57.0387 26.1509Z" fill="white"/>
<path d="M64.5832 27.2988V16.0498H66.141V25.9378H71.7327V27.2988H64.5832Z" fill="white"/>
<path d="M71.7513 27.2988L76.1951 16.0498H78.2449L82.7051 27.2988H81.0161L79.9175 24.5111H74.4405L73.3583 27.2988H71.7513ZM74.9489 23.1829H79.3927L78.0317 19.6574C77.9989 19.559 77.9497 19.4223 77.8841 19.2474C77.8185 19.0725 77.7475 18.8812 77.6709 18.6735C77.5944 18.4548 77.5179 18.2362 77.4414 18.0176C77.3648 17.788 77.2938 17.5803 77.2282 17.3944H77.1298C77.0533 17.6131 76.9658 17.8645 76.8674 18.1487C76.7691 18.433 76.6707 18.7117 76.5723 18.985C76.4739 19.2474 76.3919 19.4715 76.3263 19.6574L74.9489 23.1829Z" fill="white"/>
</svg>
